<svg width="40" height="40" viewBox="0 0 40 40" fill="none" xmlns="http://www.w3.org/2000/svg">
<g id="Team Picture">
<rect id="Rectangle 472" width="40" height="40" rx="4" fill="#4945FF"/>
<g id="Logo">
<g id="Monogram">
<path id="Combined Shape Copy" fill-rule="evenodd" clip-rule="evenodd" d="M27.9471 11.6665H14.9312V25.0832H28.3332V12.0526C28.3332 11.8394 28.1604 11.6665 27.9471 11.6665ZM21.3493 18.2716H14.9313V25.0832H21.7354V18.6577C21.7354 18.4445 21.5626 18.2716 21.3493 18.2716Z" fill="white"/>
<path id="Rectangle Copy 6" opacity="0.404989" fill-rule="evenodd" clip-rule="evenodd" d="M14.9314 11.6665V18.2716H8.79918C8.62725 18.2716 8.5411 18.0638 8.66261 17.9422L14.9314 11.6665Z" fill="white"/>
<path id="Rectangle Copy 7" opacity="0.404989" fill-rule="evenodd" clip-rule="evenodd" d="M22.0647 31.3585C21.9431 31.4802 21.7351 31.3941 21.7351 31.2221V25.0833H28.333L22.0647 31.3585Z" fill="white"/>
<path id="Rectangle Copy 8" opacity="0.404989" d="M14.9312 18.2715H21.5422C21.6489 18.2715 21.7353 18.3579 21.7353 18.4645V25.083H15.3172C15.104 25.083 14.9312 24.9102 14.9312 24.6969V18.2715Z" fill="white"/>
</g>
</g>
</g>
</svg>
