<svg width="12" height="12" viewBox="0 0 16 16" fill="none" xmlns="http://www.w3.org/2000/svg">
<g id="icon">
<path id="icon_2" fillRule="evenodd" clipRule="evenodd" d="M15.8052 0.197891C15.6802 0.0728667 15.5106 0.00262827 15.3338 0.00262827L14.0005 0.00262827C12.7691 0.00151939 11.5498 0.245717 10.4138 0.720964C10.2924 0.7716 10.1887 0.857009 10.1158 0.966442C10.0428 1.07588 10.0039 1.20444 10.0038 1.33597V3.28097C10.0045 3.28622 10.0034 3.29156 10.0007 3.2961C9.99797 3.30065 9.99377 3.30413 9.98881 3.30597L8.65547 2.32597C8.53245 2.2336 8.38126 2.18663 8.22756 2.19301C8.07385 2.19939 7.92708 2.25873 7.81213 2.36097C6.82487 3.2354 6.03414 4.30913 5.49204 5.51139C4.94995 6.71366 4.6688 8.01716 4.66713 9.33598V10.3927L2.86212 12.1977C2.73703 12.3228 2.66675 12.4924 2.66675 12.6693C2.66675 12.8462 2.73703 13.0159 2.86212 13.141C2.98722 13.2661 3.15688 13.3364 3.33379 13.3364C3.5107 13.3364 3.68036 13.2661 3.80546 13.141L5.61046 11.336H6.66713C9.14168 11.3333 11.5141 10.3492 13.2639 8.59939C15.0137 6.84962 15.9978 4.47718 16.0005 2.00263V0.669298C16.0005 0.492486 15.9303 0.322916 15.8052 0.197891ZM12 16.0001H2C1.46957 16.0001 0.960861 15.7894 0.585788 15.4143C0.210714 15.0392 0 14.5305 0 14.0001V4.00007C0 3.46963 0.210714 2.96092 0.585788 2.58585C0.960861 2.21078 1.46957 2.00006 2 2.00006H4.00001C4.17682 2.00006 4.34639 2.0703 4.47141 2.19532C4.59644 2.32035 4.66668 2.48992 4.66668 2.66673C4.66668 2.84354 4.59644 3.01311 4.47141 3.13813C4.34639 3.26316 4.17682 3.3334 4.00001 3.3334H2C1.82319 3.3334 1.65362 3.40364 1.5286 3.52866C1.40357 3.65368 1.33334 3.82325 1.33334 4.00007V14.0001C1.33334 14.1769 1.40357 14.3465 1.5286 14.4715C1.65362 14.5965 1.82319 14.6668 2 14.6668H12C12.1768 14.6668 12.3464 14.5965 12.4714 14.4715C12.5965 14.3465 12.6667 14.1769 12.6667 14.0001V12.0001C12.6667 11.8233 12.7369 11.6537 12.862 11.5287C12.987 11.4037 13.1565 11.3334 13.3334 11.3334C13.5102 11.3334 13.6797 11.4037 13.8048 11.5287C13.9298 11.6537 14 11.8233 14 12.0001V14.0001C14 14.5305 13.7893 15.0392 13.4142 15.4143C13.0392 15.7894 12.5305 16.0001 12 16.0001Z" fill="#4945FF"/>
</g>
</svg>
